# xmcd CD database file generated by Grip 3.0.5
# 
# Track frame offsets:
#       150
#       23229
#       40893
#       57822
#       88526
#       105870
#       115221
#       126486
#       138744
#       157099
#       181038
#       206913
#       227960
#       245022
#       263630
#       294955
# 
# Disc length: 4310 seconds
# 
# Revision: 3
# Processed by: cddbd v1.5.1PL0 Copyright (c) Steve Scherf et al.
# Submitted via: Grip 3.0.5
# 
DISCID=e310d410
DTITLE=Pearl Jam - LIVE On two legs
DYEAR=1998
DGENRE=Grunge
TTITLE0=Corduroy
TTITLE1=Given to fly
TTITLE2=Hail, Hail
TTITLE3=Daughter
TTITLE4=Elderly woman behind the counter in a small town
TTITLE5=Untitled
TTITLE6=MFC
TTITLE7=Go
TTITLE8=Red mosquito
TTITLE9=Even flow
TTITLE10=Off he goes
TTITLE11=Nothingman
TTITLE12=Do the evolution
TTITLE13=Better man
TTITLE14=Black
TTITLE15=F*uckin' up
EXTD=
EXTT0=
EXTT1=
EXTT2=
EXTT3=
EXTT4=
EXTT5=
EXTT6=
EXTT7=
EXTT8=
EXTT9=
EXTT10=
EXTT11=
EXTT12=
EXTT13=
EXTT14=
EXTT15=
PLAYORDER=
